<?xml version="1.0" standalone="no"?>
<!DOCTYPE svg PUBLIC "-//W3C//DTD SVG 20010904//EN"
 "http://www.w3.org/TR/2001/REC-SVG-20010904/DTD/svg10.dtd">
<svg version="1.0" xmlns="http://www.w3.org/2000/svg"
 width="700.000000pt" height="700.000000pt" viewBox="0 0 700.000000 700.000000"
 preserveAspectRatio="xMidYMid meet">
<metadata>
Created by potrace 1.14, written by Peter Selinger 2001-2017
</metadata>
<g transform="translate(0.000000,700.000000) scale(0.100000,-0.100000)"
fill="#000000" stroke="none">
<path d="M785 6985 c-348 -76 -610 -360 -652 -705 -10 -76 -9 -5540 0 -5585
49 -233 155 -409 322 -529 87 -63 187 -115 255 -132 8 -2 42 -10 75 -18 52
-13 391 -15 2710 -15 1831 0 2664 3 2695 10 25 6 55 13 68 15 13 3 52 15 87
29 278 104 481 359 522 655 8 59 8 5521 0 5580 -41 297 -244 550 -526 657
-147 55 21 52 -2846 52 -2157 -1 -2661 -4 -2710 -14z m5340 -389 c141 -19 272
-130 331 -281 19 -49 19 -101 19 -2810 l0 -2760 -24 -65 c-45 -126 -153 -228
-279 -266 -53 -16 -228 -17 -2652 -17 -1427 0 -2613 3 -2635 6 -171 26 -306
148 -348 316 -11 45 -14 527 -12 2800 1 2621 2 2748 19 2795 58 158 199 271
361 288 61 6 5172 1 5220 -6z"/>
<path d="M1840 5774 c-113 -31 -217 -118 -268 -226 -37 -76 -48 -135 -47 -250
l1 -88 -86 0 c-107 -1 -152 -7 -216 -31 -119 -45 -212 -138 -255 -257 -22 -63
-24 -80 -24 -272 1 -197 2 -207 26 -266 60 -143 186 -247 329 -271 19 -3 76
-7 125 -8 50 -2 92 -3 95 -4 3 0 6 -47 6 -104 1 -64 8 -126 19 -163 38 -133
139 -239 278 -291 32 -12 88 -16 231 -19 201 -2 258 6 344 49 58 29 147 118
178 178 21 43 55 149 53 167 -1 4 -1 48 0 98 l1 91 73 -1 c114 -2 192 11 260
43 110 52 192 148 229 264 27 86 26 399 -1 486 -26 83 -62 141 -121 194 -94
84 -189 117 -347 117 l-93 0 0 43 c-1 125 -10 206 -29 256 -54 135 -160 231
-296 267 -71 19 -391 18 -465 -2z"/>
<path d="M4150 5203 c-155 -26 -305 -162 -347 -315 -12 -42 -15 -388 -4 -440
34 -155 160 -286 316 -329 74 -20 1547 -20 1620 0 152 42 275 168 310 317 7
31 13 125 14 218 1 233 -25 321 -127 423 -50 51 -138 104 -198 120 -30 8
-1540 14 -1584 6z"/>
<path d="M4445 3228 c-102 -13 -173 -57 -307 -187 -175 -170 -218 -244 -224
-387 -6 -140 32 -228 150 -352 l79 -82 -74 -75 c-85 -86 -121 -144 -144 -230
-27 -105 -13 -216 41 -316 31 -57 250 -284 312 -323 105 -66 244 -84 364 -46
74 23 157 80 231 159 l49 52 82 -78 c128 -122 221 -160 367 -150 128 8 197 48
348 200 170 171 209 239 215 377 6 132 -35 228 -146 345 -43 45 -78 84 -78 86
0 2 33 38 73 80 114 119 158 224 151 356 -8 136 -45 202 -210 366 -169 170
-237 207 -378 209 -140 1 -232 -41 -351 -161 l-69 -70 -82 79 c-133 128 -244
169 -399 148z"/>
<path d="M1230 2745 c-4 -5 -7 -95 -6 -200 l1 -190 850 0 850 0 3 198 c1 108
-1 197 -5 197 -5 1 -385 2 -846 3 -550 1 -841 -1 -847 -8z"/>
<path d="M1226 2066 c-3 -12 -4 -101 -4 -198 l0 -178 854 0 854 0 0 199 0 198
-850 0 -850 0 -4 -21z"/>
</g>
</svg>
